<svg xmlns="http://www.w3.org/2000/svg" viewBox="0 0 603.1 266.7">
  <defs>
    <style>
      .a {
        fill: #90ee90;
      }
    </style>
  </defs>
  <title>Asset 12</title>
  <g>
    <path class="a" d="M11.3,113.1c-.8-1.3-2.1-.2-3.2.1l1.4,3C10.7,115.5,12.4,114.9,11.3,113.1Z"/>
    <path class="a" d="M603,108.3c-4.3-2.7-12.2,1.3-16.1.3a11.7,11.7,0,0,1,8.6-7.5c2.8-4.9-13.3-6.7-13.2-5.9C574.8,84.3,592.8,62,565,76.6c-13.4,7-29.5,26.8-41.9,38.3-7.3-5.1,24.8-41,27.2-48.5C563,56.8,552,49.4,552,38.4c0-9.4-24.1-19.7-29.2-18.3C512.3,23,487.4,63.8,479.6,58c0-19.7-3-32.9-17.6-37.4-26.1-7.9-24.2,14.6-50.8,24-.9-.6-4-17.6-4-17.1q0-2.1-4.3-.5c0-5.5,1.5-4.6-4.6-2.9-3.7-.9-16.8-13.9-18.7-5.7-11.3-8.4-43.3,40.4-54.8,45.7.4-.2,5.3-18.3,5.3-20.9.7-.6,10.9-11.6,9.2-15.9l-4.6.4c.5-22-5.1-4.2-12.6-7.4-1.4-.6-7-9.2-4.9-9-8.5-1-5.8,4-10.8,5.3-8.1,2.2-32.2,26.6-32.2,10.2,0,4.9-.1-3.3-.1-2.9,0-4.6-7.4-22.1-6.9-15.4-10.8-5.5-7.4.4-17.7-1.8S236.2-.4,226.4,0c-7.4.4-31.9,24.4-27.5,2.3-6,4.3-25.2,10.6-25.2,14.1,0-5.3-4.9-6.9-8.6-5.9,7.2-12.3-16.1,10.7-16.5,3.9C139.7,15.9,135,26.1,129,24.8c-13.4-3-18.8-22.8-36.5-9.4C81.8,23.4,70.9,36.2,62.5,44.5c-4.9,4.8-28.3,28.1-20.3,28.7-6.8,10.4-17.5,21.4-26.6,31.2,20.5,1.7-3.2,17.9-4.9,29.5-1.2,8.5-.1-1.6-.1,5.9,0-1.1-13.5,16.8-7.1,16.1-13.2,12.4,15.5,32.3,4.7,40.3,5.4-4,13.4-6.1,14.5,1.3.7,4.8-9.9,13.6-10.2,18.4-.5,8,7.8,20.1,13,24.7,19.2,16.8,43.7-5.4,58-15.2-7.9,13.8,17.4,22.6,22.5,24.6a20.9,20.9,0,0,0-2.3,4.9c5.4,10.2,27.1-4,28.3-10.9q0,2.7,4.3-3.2c12,10.8-7,23.1,15.4,25.9-2.3-.3,12.7-2.3,16.5-1.7,5.3.9,5.5-6.5,7.1-6.3,6.4,2.2-.3,3.1,2.5,6.1,1.1-.6,23.2-14.9,23.8-14.8s-1.5,4.6-.1,5.9c16.9-5.6,35.9-44.2,50.7-46,3.8-1.9-2.5,20.9-2.4,16.4-.3,7.5,2.8,26.8,15.3,26.8-1-1.4,4.4-1,4.4.1s30.6-1.7,34.2-5.2c4.5,3.9,7.8-6.7,10.8-7.1,5.8-.8,3.4,0,10.8,3,2.3,1,8.5,6.9,10.3,8.1,21.6,13.8,43-2.6,58.4-17.6,2.7-1,23.8,16.7,23.8,14.9,0,9.5,48.4-14,54.5-17.4,15.3-8.4,44-25.6,52.3-41.6,9.2-6.6,16.7-14,25.3-21.7,5-4.4,32.4-33.3,30.7-33.1C582.4,133.4,604.3,110,603,108.3ZM121.6,37.7C121.7,38.3,121.6,37.9,121.6,37.7Zm15,1.8C136.3,39.7,136.3,39.4,136.6,39.5ZM451.6,56C450.5,57.2,449.8,55.3,451.6,56Zm-258,108.5C194.3,164.3,193.1,166.8,193.5,164.4Zm44-24.7Zm-40-15C197.1,125.9,196.7,125.4,197.6,124.7Zm57.8-28.6C255.5,95.9,255.3,96.3,255.4,96.1Zm46-9.7h0C301.6,86,301.4,86.4,301.4,86.4Zm-90.2.1h0ZM55.2,129C54.7,128.7,55.6,127.4,55.2,129Zm57-32.3C112.4,96.9,111.9,97.4,112.2,96.7Zm30.1,43.6C142.2,140,142.4,140.2,142.3,140.3ZM309.2,156C309.3,156,309.2,156.1,309.2,156Zm-9.1,17.6Zm4.6-8.8Zm139.2,17.8C444,182.5,444.1,182.7,443.8,182.6Zm-2.1-35.1,1.9-3.6Q440.4,150.4,441.8,147.5Zm-91.1-11.4C351.1,135.9,350.9,136.1,350.7,136.1Zm30.8-69.2C381.5,66.5,381.7,66.7,381.5,66.9ZM300.1,173.7C300.1,173.4,300.5,173.6,300.1,173.7ZM506.9,98.3ZM374.5,41.6ZM313.4,73.1C313.6,73.2,313.4,73.4,313.4,73.1ZM203.9,77.6h0C203.9,76.8,204,77.5,203.9,77.6ZM184.3,200.1ZM440.9,57.6C441.1,56.9,441.4,57.2,440.9,57.6ZM273.3,217.9C273.4,217.9,273.3,217.9,273.3,217.9ZM163.1,32.7C162.9,32.6,163.1,32.6,163.1,32.7Zm-36.7,5.2C125.8,38.1,126,37.6,126.4,37.9ZM240.8,181.8ZM550.4,52.5C550.2,52.5,550.3,52.3,550.4,52.5ZM426.3,40.9ZM121.6,35C121.8,35.1,121.6,34.9,121.6,35ZM392.5,226.8ZM17.9,141.5C18.1,141.5,17.9,141.5,17.9,141.5ZM274,25.7C273.9,25.5,274,25.3,274,25.7ZM222.8,8.9C222.9,12,219.8,12.7,222.8,8.9ZM23.2,99.9C22.9,100.2,23,99.9,23.2,99.9ZM336.4,247.8C336.7,246.9,337.9,247.2,336.4,247.8Zm12.6,6a11.4,11.4,0,0,0,3.7-.5A7,7,0,0,1,348.9,253.8Zm8.5-3c.2-.1,2.3-4.3,3-1.7S360.6,251.1,357.4,250.8Z"/>
  </g>
</svg>
