<svg xmlns="http://www.w3.org/2000/svg" viewBox="0 0 386.3 277.4">
  <defs>
    <style>
      .a {
        opacity: 0.3;
      }

      .b {
        fill: #fff;
        stroke: #fff;
        stroke-miterlimit: 10;
      }

      .b, .d, .e {
        fill-rule: evenodd;
      }

      .c, .d {
        fill: #cd96cd;
      }

      .e, .f {
        fill: #694489;
      }
    </style>
  </defs>
  <title>Asset 1</title>
  <g>
    <g class="a">
      <path class="b" d="M248.3,276.3l-.6.4h.8Z"/>
      <path class="b" d="M375.2,116.2l1-5,6.1-16.7,2.9-9L372.8,39.8l-7-19.6-11.4-5.3-3.7-7.3-5-4.4-6.7-1.3-6.2,4.3-2.1,7.6L329,12.1,322,15.9l-3,19v4.9l-5.9,4.5-3,8.7-1.7,18.8-13,36.9-14.3,25.7-22.3,21.3-32,26.3-11.3,23.7,2.3,15-11.9,23-12.7,14.7-12.7-14.7-11.9-23,2.3-15-11.3-23.7-32-26.3-22.3-21.3L90.8,108.5l-13-36.9L76.2,52.9l-3-8.7-5.9-4.5V34.9l-3-19-6.9-3.8-1.9,1.8L53.4,6.2,47.2,1.9,40.5,3.2l-5,4.4-3.7,7.3L20.5,20.1l-7,19.6L1.2,85.5l2.9,9,6.1,16.7,1,5,1.4,5.8-9.7,9.1,3.3,26.5,15.7,28.3,28.4,28.5s21.6,32.1,31.4,38.3c23.1-2.8,29.5,14,29.5,14l.7,1.2a11.9,11.9,0,0,1,4,.7c2-.2,3.6.1,4.2,1.1a25.6,25.6,0,0,1,11.1-.9c2.3.4,2.2,1.3,3.7,2.4s5.1,1,7.6,1a32.9,32.9,0,0,1,5.6-1.2,16.3,16.3,0,0,1,5,0,27.3,27.3,0,0,1,13.1-3,11.9,11.9,0,0,1,4,.9l.5-.2a39.5,39.5,0,0,1,14.1-3.9,25.2,25.2,0,0,1,3.8-2.3c1.3-.6,14.9-4.6,13.5-.6-1.9,5.7,8.4,4.1,11.2,4.8a8.7,8.7,0,0,1,4,2,24.8,24.8,0,0,1,10.7-2,7.4,7.4,0,0,1,6.2,3.7c1,1.4,2.4,2.7,3.3,4h0c6-4.7,14.2-8.8,22-7.9a7.3,7.3,0,0,1,5.3,3.1,23.8,23.8,0,0,1,10.6-3.3c1-2.3,8.2-16.2,29.4-13.6,9.7-6.3,31.4-38.3,31.4-38.3l28.4-28.5,15.7-28.3,3.3-26.5-9.7-9.1Z"/>
    </g>
    <path class="c" d="M159.8,225.2a10.7,10.7,0,0,1,8.7,9.4c1.2,8.3,16.4,29.3,22.7,31.3,4.6-1.2,8.2-5.1,8.2-5.1s-8.7-4.9-14.3-11.7-16.5-28.5-16.5-28.5Z"/>
    <path class="d" d="M25.7,18.1s1.6,3.5-2.1,10.5S14.9,53.7,12.2,65.5s-7.5,19.6-2,28.3,11.6,16.3,13.4,25,0,12.2,0,12.2l-11-9.1L5.2,96.9l-4-13L8.4,57.1l9.2-29S21.9,17.9,25.7,18.1Z"/>
    <path class="d" d="M46.3,2.8s4.2-.7,2.3,2.1-5.9,1.1-7.8,3.3-2.9,8.9-2.3,10.4c1.7,4.7-5.7-1.2-5.7-3.8s-.2-7.3,5.1-9.6S44.3.6,46.3,2.8Z"/>
    <path class="d" d="M140.7,166.7a36.7,36.7,0,0,0,8,10.3c5.5,5,16.2,18,16.3,26.3s.8,14.5-5.5,16-12.5,5.4-11.7,5.4,4.3,1.4,12-1.3,12.3-5.3,11.7-11.7-3.2-19-6.3-22.5-11.8-16-18.2-19.3Z"/>
    <path class="d" d="M71.1,42.6s-1.6,22.6,0,32.6,5.2,18.2,7.4,21,8.3,12.8,8.8,21.3-2.8,8.2-2.8,5.8-4.4-15.3-5.6-17.2-8.1-14.7-9.2-17.3-6.1-15.8-5.3-21.1,2-25.8,2-25.8S68.9,36.3,71.1,42.6Z"/>
    <path class="d" d="M56.3,17s6,7.8,4.2,15.3A48.2,48.2,0,0,0,60,53.7c1.4,6.8.2,14.8.5,26.3s8,18,8.3,27,3.4,18.3,3.8,20-3.2,1.3-4,1-4.5-9.7-6.3-17.2-3.2-15.5-6-21.3-2.7-16.6-2-21.7a59.7,59.7,0,0,0-.9-17.6c-1.1-4.8.8-14,1.1-20.3A85.9,85.9,0,0,1,56.3,17Z"/>
    <path class="d" d="M47.2,165.9s7.5,7.8,17.1,7,29.3,1.5,37.9,9,8.7,9.8,6.7,10-11.2-6.5-16-7.3-17.7-5.1-28.6-5.7-17.1-7.2-18.2-13"/>
    <path class="d" d="M42.2,24s3.5,4.2,3.2,13.2-1.7,20.2-3.2,25.7S37.5,82.5,39,88s11.3,15,11.2,26.7-1.8,18-3,17.8-2.7.4-2.1-7-.5-19.1-4.5-25.3-8.3-13.5-7.3-19.8S36.7,68.7,38.7,59s1.5-16.8,2-19.8S42.2,24,42.2,24Z"/>
    <path class="d" d="M4.1,125.5s4.8,3.1,13.4,27.6,10.6,30.6,26.5,41,28.7,51.3,49.7,51.8,39.6-27.5,36.5-18-6,20.5-27.6,26.6c-27.9,7.9-42.4-32.4-52.3-40.1s-39.6-39.1-42-45.6S4.1,125.5,4.1,125.5Z"/>
    <path class="e" d="M196.6,141.5c-145.9-79.6-40.4-178.6,0-111.9,40.4-66.7,146,32.3,0,111.9Zm0,0"/>
    <path class="c" d="M226.5,225.2a10.7,10.7,0,0,0-8.7,9.4c-1.2,8.3-16.3,26.7-22.5,28.7s-6.9-.9-6.9-.9A146.7,146.7,0,0,0,201.3,249c5.7-6.8,16.5-28.5,16.5-28.5Z"/>
    <path class="d" d="M360.7,18.1s-1.6,3.5,2.1,10.5,8.7,25.1,11.4,36.9,7.5,19.6,2,28.3-11.6,16.3-13.4,25,0,12.2,0,12.2l11-9.1,7.4-25.1,4-13-7.3-26.7-9.2-29S364.5,17.9,360.7,18.1Z"/>
    <path class="d" d="M340.1,2.8s-4.2-.7-2.3,2.1,5.9,1.1,7.8,3.3,2.9,8.9,2.3,10.4c-1.7,4.7,5.7-1.2,5.7-3.8s.2-7.3-5.1-9.6S342,.6,340.1,2.8Z"/>
    <path class="d" d="M245.7,166.7a36.7,36.7,0,0,1-8,10.3c-5.5,5-16.2,18-16.3,26.3s-.8,14.5,5.5,16,12.5,5.4,11.7,5.4-4.3,1.4-12-1.3-12.3-5.3-11.7-11.7,3.2-19,6.3-22.5,11.8-16,18.2-19.3Z"/>
    <path class="d" d="M315.2,42.6s1.6,22.6,0,32.6-5.2,18.2-7.4,21-8.3,12.8-8.8,21.3,2.8,8.2,2.8,5.8,4.4-15.3,5.6-17.2,8.1-14.7,9.2-17.3,6.1-15.8,5.3-21.1-2-25.8-2-25.8S317.5,36.3,315.2,42.6Z"/>
    <path class="d" d="M330,17s-6,7.8-4.2,15.3a48.2,48.2,0,0,1,.5,21.3c-1.4,6.8-.2,14.8-.5,26.3s-8,18-8.3,27-3.4,18.3-3.8,20,3.2,1.3,4,1,4.5-9.7,6.3-17.2,3.2-15.5,6-21.3,2.7-16.6,2-21.7a59.7,59.7,0,0,1,.9-17.6c1.1-4.8-.8-14-1.1-20.3A85.9,85.9,0,0,0,330,17Z"/>
    <path class="d" d="M339.1,165.9s-7.5,7.8-17.1,7-29.3,1.5-37.9,9-8.7,9.8-6.7,10,11.3-6.5,16-7.3,17.7-5.1,28.6-5.7,17.1-7.2,18.2-13"/>
    <path class="d" d="M344.2,24s-3.5,4.2-3.2,13.2,1.7,20.2,3.2,25.7,4.7,19.7,3.2,25.2-11.3,15-11.2,26.7,1.8,18,3,17.8,2.7.4,2.1-7,.5-19.1,4.5-25.3S354,86.7,353,80.4s-3.3-11.7-5.3-21.3-1.5-16.8-2-19.8S344.2,24,344.2,24Z"/>
    <path class="d" d="M382.3,125.5s-4.8,3.1-13.4,27.6-10.6,30.6-26.5,41-28.7,51.3-49.7,51.8-39.6-27.5-36.5-18,6,20.5,27.6,26.6c27.9,7.9,42.4-32.4,52.3-40.1s39.6-39.1,42-45.6S382.3,125.5,382.3,125.5Z"/>
    <path class="f" d="M378.6,110.3c.7-2.2,1.5-4.4,2.4-6.6l1.4-3.2.7-1.6.7-1.7a36.1,36.1,0,0,0,2.1-7.3,26.2,26.2,0,0,0,.2-7.8,34.6,34.6,0,0,0-.7-3.7l-.9-3.5-1.8-6.9L379,54.1c-.6-2.3-1.3-4.6-1.9-6.9L375,40.3a92.7,92.7,0,0,0-5.2-13.7,36.7,36.7,0,0,0-3.9-6.5,15,15,0,0,0-6.5-5.1h-.3a12,12,0,0,1-2.8-1.5,24.9,24.9,0,0,0-5.1-8.8A15.3,15.3,0,0,0,346.1.9a11.2,11.2,0,0,0-6.7-.7,13.5,13.5,0,0,0-9.6,8.4l-.4,1.2h-.4l-1.8.3a10.4,10.4,0,0,0-3.6,1.5L322.1,13a13.1,13.1,0,0,0-1.2,1.6,14.7,14.7,0,0,0-1.5,3.3,28.8,28.8,0,0,0-1.2,6.6c-.2,2.1-.3,4.2-.4,6.2q0,.1,0,.3h0l-.2,7.5a10,10,0,0,0-2.7,1.3,13.5,13.5,0,0,0-3.4,3.3,23.6,23.6,0,0,0-3.6,7.8,44.1,44.1,0,0,0-1.3,8.1,71,71,0,0,0-.2,7.8,95.8,95.8,0,0,1-4.3,22.8,75.1,75.1,0,0,1-4.4,10.7c-1.8,3.5-3.6,7.1-5.5,10.6a222,222,0,0,1-12.1,20.3c-1.1,1.6-2.3,3.2-3.5,4.6l-1.9,2.2-2,2.2c-2.7,3-5.3,5.9-8.1,8.6a100.5,100.5,0,0,1-8.7,7.8l-4.7,3.5-2.4,1.6-2.5,1.6c-6.7,4.4-13.5,9.1-19.2,15.2a54.6,54.6,0,0,0-4,4.8,52.9,52.9,0,0,0-3.2,5.4,67.3,67.3,0,0,0-4.8,11.4,40.8,40.8,0,0,0-1.4,6.1,23,23,0,0,0-.1,6.5,15.2,15.2,0,0,0,1.4,4.6l.4.7a5.5,5.5,0,0,1-.6,4.1c-2.6,5.2-7.3,14.5-11.6,21.6A66.8,66.8,0,0,1,193.2,256a66.8,66.8,0,0,1-10.1-12.2c-4.3-7-9-16.4-11.6-21.6a5.5,5.5,0,0,1-.6-4.1l.4-.7a15.2,15.2,0,0,0,1.4-4.6,23,23,0,0,0-.1-6.5,40.8,40.8,0,0,0-1.4-6.1,67.3,67.3,0,0,0-4.8-11.4,52.9,52.9,0,0,0-3.2-5.4,54.6,54.6,0,0,0-4-4.8c-5.7-6.1-12.4-10.8-19.2-15.2l-2.5-1.6-2.4-1.6-4.7-3.5a100.5,100.5,0,0,1-8.7-7.8c-2.8-2.8-5.4-5.7-8.1-8.6l-2-2.2-1.9-2.2c-1.2-1.4-2.4-3-3.5-4.6a222,222,0,0,1-12.1-20.3c-1.9-3.5-3.7-7-5.5-10.6a75.1,75.1,0,0,1-4.4-10.7,95.8,95.8,0,0,1-4.3-22.8,71,71,0,0,0-.2-7.8,44.1,44.1,0,0,0-1.3-8.1A23.6,23.6,0,0,0,74.8,43a13.5,13.5,0,0,0-3.4-3.3,10,10,0,0,0-2.7-1.3l-.2-7.5h0q0-.1,0-.3c-.1-2-.2-4.1-.4-6.2A28.8,28.8,0,0,0,67,17.9a14.7,14.7,0,0,0-1.5-3.3A13.1,13.1,0,0,0,64.2,13l-1.5-1.3a10.4,10.4,0,0,0-3.6-1.5l-1.8-.3h-.4l-.4-1.2A13.5,13.5,0,0,0,46.9.2a11.2,11.2,0,0,0-6.7.7,15.3,15.3,0,0,0-5.2,3.7,24.9,24.9,0,0,0-5.1,8.8A12,12,0,0,1,27.2,15h-.3a15,15,0,0,0-6.5,5.1,36.7,36.7,0,0,0-3.9,6.5,92.7,92.7,0,0,0-5.2,13.7L9.3,47.1c-.7,2.3-1.3,4.6-1.9,6.9L3.7,67.9,1.9,74.8,1,78.3A34.6,34.6,0,0,0,.2,82a26.2,26.2,0,0,0,.2,7.8,36.1,36.1,0,0,0,2.1,7.3l.7,1.7.7,1.6,1.4,3.2c.9,2.2,1.7,4.4,2.4,6.6A22.7,22.7,0,0,1,7.8,123a10,10,0,0,0-3.8,2.5,10.6,10.6,0,0,0-2.3,4.3,20.7,20.7,0,0,0-.3,8.3l.3,1.8.2,1.7c.1,1.2.3,2.4.5,3.7s.7,4.9,1.2,7.3a82.6,82.6,0,0,0,3.9,14.4c.2.6.5,1.2.7,1.8s.5,1.2.8,1.8l.9,1.7.9,1.6c1.2,2.1,2.6,4.2,3.9,6.3a67.2,67.2,0,0,0,9.6,11.5c3.6,3.4,7.3,6.5,10.7,9.8s6.7,6.7,9.9,10.2l8.3,11.7c2.8,4,5.6,7.9,8.6,11.8a80.1,80.1,0,0,0,9.9,11.2,36.4,36.4,0,0,0,6.3,4.6,34.4,34.4,0,0,0,7,3,27.7,27.7,0,0,0,12,2.8c1.4,0,7,.7,9.3,5.1l2,4a2,2,0,0,0,1.8,1.1l.9-.2a2,2,0,0,0,.9-2.7c-1.6-3.2-2.9-5.7-3.9-7.5h0c-.1-1.2-.1-2,1-2.4l1.4-.6,1.3-.7,2.6-1.6,1.2-.8,1.2-.9,1.2-.9,1.1-1,2.2-2,2-2.2,1.9-2.2,2-2.6c.3-.4.1-.6-.3-1a1,1,0,0,0-1.4,0h0a76,76,0,0,1-8.5,7.4l-1.1.8-1.2.8-1.2.8-1.2.7-1.2.7-1.2.6-1.2.6-1.3.5a27.7,27.7,0,0,1-10.4,2A23.1,23.1,0,0,1,87,249.7h-.3a34.1,34.1,0,0,1-6.2-2.6,31.7,31.7,0,0,1-5.5-4,78.7,78.7,0,0,1-9.4-10.5c-2.9-3.8-5.8-7.7-8.6-11.6l-8.5-11.7h-.1c-3.3-3.6-6.7-7.1-10.2-10.5s-7.3-6.5-10.7-9.8a63,63,0,0,1-9-10.9c-1.3-2-2.6-4-3.8-6.1l-.9-1.5-.8-1.5a16.5,16.5,0,0,1-.7-1.6c-.2-.5-.5-1-.7-1.6a78.5,78.5,0,0,1-3.6-13.7c-.4-2.4-.8-4.7-1.1-7.1s-.3-2.4-.4-3.6L6,139.3v-1.8a16.6,16.6,0,0,1,.2-6.5,5.6,5.6,0,0,1,3.7-4,10,10,0,0,1,3.1-.5,10.3,10.3,0,0,1,3.1.4,15.2,15.2,0,0,1,5.7,3.2c3.5,2.9,6.3,6.8,8.9,10.8s4.9,8.3,7.1,12.5,4.3,8.6,6.6,13a73.6,73.6,0,0,0,3.8,6.4,18,18,0,0,0,5.6,5.5,16.3,16.3,0,0,0,3.7,1.6l1.9.5,1.9.3,7.2.9c4.8.6,9.5,1.4,14.2,2.5a76.8,76.8,0,0,1,13.5,4.3l3.2,1.5,3,1.7,6,3.9h.1c.9.6,1,.6,1.3.3s1.7-2.9.8-3.5l-6.2-4.1c-1-.7-6.1-4.6-7.2-5.1-4.6-2-8.8-1.9-13.6-3s-9.7-1.9-14.5-2.6l-7.2-1-1.7-.3-1.5-.4a12.1,12.1,0,0,1-2.8-1.2,16.2,16.2,0,0,1-4.4-4.3,50.1,50.1,0,0,1-3.9-5.7c-1-2.1-2-4.3-3.1-6.5L41,151.5c-2.2-4.4-4.5-8.7-7.1-13a74.3,74.3,0,0,0-4.2-6.2,37.4,37.4,0,0,0-5.3-5.8,19.4,19.4,0,0,0-6.6-3.8h0c-4-3.8-4.9-9.1-6.4-13.7-.8-2.3-1.6-4.6-2.5-6.8s-2-4.5-2.9-6.5A25.7,25.7,0,0,1,3.9,82.5a30.9,30.9,0,0,1,.7-3.3l.9-3.5,1.8-6.9c2.4-9.2,4.8-18.4,7.6-27.5a89.3,89.3,0,0,1,4.9-13.1,33.2,33.2,0,0,1,3.5-5.8A11.7,11.7,0,0,1,28,18.5a11.4,11.4,0,0,1,6.7.9,11.4,11.4,0,0,1,6.4,7.9v.4h0c0,.2,0,.6-.1.9s-.2,1.3-.3,1.9l-1.3,7.8c-.4,2.6-.9,5.2-1.2,7.9s-.7,5.3-1,7.9a56,56,0,0,1-3.4,15v.2a61.5,61.5,0,0,0-1.7,8.1,27.2,27.2,0,0,0,.1,8.5c.1.4.1.7.2,1.1l.4,1.1.8,2,1.8,3.7,3.6,7.2A44.7,44.7,0,0,1,43.8,116a49.4,49.4,0,0,1,.5,7.8,36.2,36.2,0,0,1-.3,3.9c-.1.6-.2,1.3-.3,1.9l-.2.9-.2.8h0c-.2.4,1.1,1.4,1.9,1.6s.7-.3.9-.6a14.5,14.5,0,0,0,.6-2.2c.1-.7.2-1.4.3-2.1s.2-2.8.3-4.2a52.4,52.4,0,0,0-.4-8.3,56,56,0,0,0-1.7-8.2,48.5,48.5,0,0,0-3-7.8l-3.5-7.3-1.7-3.6-.7-1.7-.2-.8c-.1-.2-.1-.6-.2-.9-.8-4.8.2-9.9,1.5-15A59.9,59.9,0,0,0,41,54.6c.3-2.7.6-5.2,1-7.8s.8-5.2,1.2-7.8l1.3-7.9c.1-.7.2-1.3.3-2s.1-.7.1-1.2,0-.3,0-.4a4.1,4.1,0,0,0-.1-.5v-.6A15.1,15.1,0,0,0,43,22.2c-1.6-2.7-2.9-5-5.7-6.3s-1.5-4.1-1.4-5.6a17.8,17.8,0,0,1,2.2-2.9c2.2-2.4,5.2-3.9,8.1-3.2l1,.3,1,.5a9.9,9.9,0,0,1,1.9,1.3A9.6,9.6,0,0,1,52.6,10a22.7,22.7,0,0,1,1,5,51.9,51.9,0,0,1,.2,5.3,82.6,82.6,0,0,1-.9,10.8c-.2,1.8-.6,3.6-.8,5.5a56.4,56.4,0,0,0-.6,5.7,49.4,49.4,0,0,0,.9,11.4,37.1,37.1,0,0,1,.5,5.3,38,38,0,0,1-.3,5.2,49.2,49.2,0,0,0-.4,17.5,41.6,41.6,0,0,0,2.3,8.6l.9,2,.8,1.9c.5,1.3,1,2.6,1.4,3.9a104.8,104.8,0,0,1,4.1,16.1,34.9,34.9,0,0,0,1.9,8.7,22.3,22.3,0,0,0,2,4.2,17.3,17.3,0,0,0,1.4,1.9l.8.9.5.4.6.5a1,1,0,0,0,1.2-.1c.8-.8,1.3-2.5.7-2.9l-.2-.2-.3-.3-.6-.7-1-1.5a19.9,19.9,0,0,1-1.6-3.5,27.7,27.7,0,0,1-1-3.8l-.3-2-.2-2.1c-.4-3-1.1-5.8-1.7-8.6s-1.5-5.6-2.4-8.3-1-2.7-1.5-4.1l-.8-2-.4-1-.2-.5-.2-.4a37.8,37.8,0,0,1-2.1-7.7A45.2,45.2,0,0,1,56.6,65h0A42.1,42.1,0,0,0,57,59a41.1,41.1,0,0,0-.6-5.8,45.4,45.4,0,0,1-.9-10.6,52.4,52.4,0,0,1,.5-5.3c.2-1.8.6-3.7.9-5.5a86.6,86.6,0,0,0,.9-11.3c-.1-4.4,1.4-4.5,1.4-5.9l1,.5A7.8,7.8,0,0,1,63,19.1a25,25,0,0,1,1.1,5.7c.2,2,.3,4,.4,6l-.2,8.9V40a2,2,0,0,0,0,.3V43c-.1,4.1-.2,8.1-.4,12.2s-.3,8.2-.3,12.3c0,2.1.1,4.1.2,6.2a35.6,35.6,0,0,0,1,6.3,73.6,73.6,0,0,0,4.5,11.6q2.6,5.6,5.8,10.9l1.6,2.6.8,1.3.7,1.3a42.1,42.1,0,0,1,2.3,5.4,76.6,76.6,0,0,1,2.9,11.6h0c.1.7.1,1.2.8,1.1s1.9-.8,1.8-1.5a79.2,79.2,0,0,0-2.8-12.1,44.9,44.9,0,0,0-2.3-5.9l-.7-1.4-.8-1.4-1.5-2.6c-2-3.5-3.8-7.1-5.5-10.7A70.3,70.3,0,0,1,68.1,79a32.5,32.5,0,0,1-.8-5.7c-.1-2-.2-4-.1-6,0-4,.2-8,.4-12.1s.4-6.7.5-10.1a17.2,17.2,0,0,1,.6-2.4,9,9,0,0,1,2.7,2.6,19.6,19.6,0,0,1,2.9,6.5,51.8,51.8,0,0,1,1.3,14.8c0,.1,0,.1,0,.2h0a100.1,100.1,0,0,0,4.5,23.9,79.4,79.4,0,0,0,4.6,11.4c1.8,3.6,3.7,7.1,5.6,10.7a225.7,225.7,0,0,0,12.4,20.8c1.2,1.7,2.4,3.3,3.7,4.9l2,2.3,2,2.2c2.7,3,5.4,6,8.3,8.8a104.8,104.8,0,0,0,9.1,8.1l4.9,3.6,2.6,1.7,2.5,1.6c6.7,4.3,13.2,8.8,18.5,14.4a50.7,50.7,0,0,1,3.7,4.4,49.6,49.6,0,0,1,3,4.9,63.4,63.4,0,0,1,4.6,10.7,27.6,27.6,0,0,1,1.5,11,10.4,10.4,0,0,1-1.7,4.8,9.4,9.4,0,0,1-3.9,3.2h0l-.3.2a18.1,18.1,0,0,1-3.8,2.2,22.5,22.5,0,0,1-4.3,1.3,34.4,34.4,0,0,1-4.5.7,35.8,35.8,0,0,1-4.6,0h0c-.4,0-.7,1.6-.2,1.7a27.4,27.4,0,0,0,4.9.6,28.1,28.1,0,0,0,5-.2,22.6,22.6,0,0,0,9.3-3.3c.5-.1,2.9.2,4.5,3.3h0c2.7,5.4,6.7,13.1,10.4,19.1A73.7,73.7,0,0,0,191.5,260a2,2,0,0,0,1.4.6h.5a2,2,0,0,0,1.4-.6,73.7,73.7,0,0,0,11.8-14.1c3.7-6,7.7-13.7,10.4-19.1h0c1.6-3.1,4-3.4,4.5-3.3a22.6,22.6,0,0,0,9.3,3.3,28.1,28.1,0,0,0,5,.2,27.4,27.4,0,0,0,4.9-.6c.5-.1.2-1.8-.2-1.7h0a35.8,35.8,0,0,1-4.6,0,34.4,34.4,0,0,1-4.5-.7,22.5,22.5,0,0,1-4.3-1.3,18.1,18.1,0,0,1-3.8-2.2l-.3-.2h0a9.4,9.4,0,0,1-3.9-3.2,10.4,10.4,0,0,1-1.7-4.8,27.6,27.6,0,0,1,1.5-11,63.4,63.4,0,0,1,4.6-10.7,49.6,49.6,0,0,1,3-4.9,50.7,50.7,0,0,1,3.7-4.4c5.3-5.7,11.8-10.2,18.5-14.4l2.5-1.6,2.6-1.7,4.9-3.6a104.8,104.8,0,0,0,9.1-8.1c2.9-2.8,5.6-5.8,8.3-8.8l2-2.2,2-2.3c1.4-1.6,2.6-3.3,3.7-4.9a225.7,225.7,0,0,0,12.4-20.8c1.9-3.5,3.7-7.1,5.6-10.7a79.4,79.4,0,0,0,4.6-11.4,100.1,100.1,0,0,0,4.5-23.9h0c0-.1,0-.1,0-.2A51.8,51.8,0,0,1,312,51.9a19.6,19.6,0,0,1,2.9-6.5,9,9,0,0,1,2.7-2.6,17.2,17.2,0,0,1,.6,2.4c.1,3.4.3,6.7.5,10.1s.4,8.1.4,12.1c0,2,0,4-.1,6a32.5,32.5,0,0,1-.8,5.7,70.3,70.3,0,0,1-4.1,11.1c-1.7,3.6-3.5,7.2-5.5,10.7l-1.5,2.6-.8,1.4-.7,1.4a44.9,44.9,0,0,0-2.3,5.9,79.2,79.2,0,0,0-2.8,12.1c-.1.7,1.1,1.4,1.8,1.5s.7-.4.8-1.1h0A76.6,76.6,0,0,1,306,113a42.1,42.1,0,0,1,2.3-5.4l.7-1.3.8-1.3,1.6-2.6q3.1-5.3,5.8-10.9a73.6,73.6,0,0,0,4.5-11.6,35.6,35.6,0,0,0,1-6.3c.2-2.1.2-4.1.2-6.2,0-4.1-.1-8.2-.3-12.3S322.1,47,322,43V40.2a2,2,0,0,0,0-.3v-.2l-.2-8.9c.2-2.1.3-4.1.4-6a25,25,0,0,1,1.1-5.7,7.8,7.8,0,0,1,2.8-4.1l1-.5c-.1,1.4,1.4,1.6,1.4,5.9a86.6,86.6,0,0,0,.9,11.3c.2,1.9.6,3.7.9,5.5a52.4,52.4,0,0,1,.5,5.3,45.4,45.4,0,0,1-.9,10.6,41.1,41.1,0,0,0-.6,5.8,42.1,42.1,0,0,0,.4,5.9h0a45.2,45.2,0,0,1,.4,16.2,37.8,37.8,0,0,1-2.1,7.7l-.2.4-.2.5-.4,1-.8,2c-.5,1.4-1,2.7-1.5,4.1s-1.7,5.5-2.4,8.3-1.3,5.6-1.7,8.6l-.2,2.1-.3,2a27.7,27.7,0,0,1-1,3.8,19.9,19.9,0,0,1-1.6,3.5l-1,1.5-.6.7-.3.3-.2.2c-.6.4,0,2.1.7,2.9a1,1,0,0,0,1.2.1l.6-.5.5-.4.8-.9a17.3,17.3,0,0,0,1.4-1.9,22.3,22.3,0,0,0,2-4.2,34.9,34.9,0,0,0,1.9-8.7,104.8,104.8,0,0,1,4.1-16.1c.4-1.3.9-2.6,1.4-3.9l.8-1.9.9-2a41.6,41.6,0,0,0,2.3-8.6,49.2,49.2,0,0,0-.4-17.5,38,38,0,0,1-.3-5.2,37.1,37.1,0,0,1,.5-5.3,49.4,49.4,0,0,0,.9-11.4,56.4,56.4,0,0,0-.6-5.7c-.3-1.9-.6-3.7-.8-5.5a82.6,82.6,0,0,1-.9-10.8,51.9,51.9,0,0,1,.2-5.3,22.7,22.7,0,0,1,1-5,9.6,9.6,0,0,1,2.6-3.7A9.9,9.9,0,0,1,338.2,5l1-.5,1-.3c2.8-.6,5.8.8,8.1,3.2a17.9,17.9,0,0,1,2.2,2.9c.1,1.4,0,4.9-1.4,5.6s-4.2,3.6-5.7,6.3a15.1,15.1,0,0,0-1.7,4.3V27a4.1,4.1,0,0,0-.1.5c0,.1,0,.3,0,.4s.1.8.1,1.2.2,1.4.3,2l1.3,7.9c.4,2.6.9,5.2,1.2,7.8s.7,5.2,1,7.8A59.9,59.9,0,0,0,349,70.4c1.3,5,2.3,10.2,1.5,15-.1.3-.1.7-.2.9l-.2.8-.7,1.7-1.7,3.6-3.5,7.3a48.5,48.5,0,0,0-3,7.8,56,56,0,0,0-1.7,8.2,52.4,52.4,0,0,0-.4,8.3c0,1.4.1,2.8.3,4.2s.2,1.4.3,2.1a14.5,14.5,0,0,0,.6,2.2c.1.3.3.8.9.6s2-1.2,1.9-1.6h0l-.2-.8-.2-.9c-.1-.6-.2-1.3-.3-1.9a36.2,36.2,0,0,1-.3-3.9,49.4,49.4,0,0,1,.5-7.8,44.7,44.7,0,0,1,4.6-14.9l3.6-7.2,1.8-3.7.8-2,.4-1.1c.1-.4.2-.7.2-1.1a27.2,27.2,0,0,0,.1-8.5,61.5,61.5,0,0,0-1.7-8.1v-.2a56,56,0,0,1-3.4-15c-.3-2.6-.6-5.3-1-7.9s-.8-5.3-1.2-7.9l-1.3-7.8c-.1-.6-.2-1.3-.3-1.9s-.1-.6-.1-.9h0v-.4a11.4,11.4,0,0,1,6.4-7.9,11.4,11.4,0,0,1,6.7-.9,11.7,11.7,0,0,1,4.7,3.9,33.2,33.2,0,0,1,3.5,5.8,89.3,89.3,0,0,1,4.9,13.1c2.8,9.1,5.2,18.3,7.6,27.5l1.8,6.9.9,3.5a30.9,30.9,0,0,1,.7,3.3,25.7,25.7,0,0,1-2.1,13.2c-.9,2.1-2,4.3-2.9,6.5s-1.7,4.5-2.5,6.8c-1.5,4.6-2.4,9.9-6.4,13.7h0a19.4,19.4,0,0,0-6.6,3.8,37.4,37.4,0,0,0-5.3,5.8,74.3,74.3,0,0,0-4.2,6.2c-2.6,4.2-4.9,8.6-7.1,13l-3.2,6.6c-1.1,2.2-2.1,4.4-3.1,6.5a50.1,50.1,0,0,1-3.9,5.7,16.2,16.2,0,0,1-4.4,4.3,12.1,12.1,0,0,1-2.8,1.2l-1.5.4-1.7.3-7.2,1c-4.8.7-9.7,1.5-14.5,2.6s-9.1,1-13.6,3c-1.1.6-6.2,4.5-7.2,5.1l-6.2,4.1c-.9.6.2,2.6.8,3.5s.4.3,1.3-.3h.1l6-3.9,3-1.7,3.2-1.5A76.8,76.8,0,0,1,304,184c4.6-1.1,9.4-1.8,14.2-2.5l7.2-.9,1.9-.3,1.9-.5a16.3,16.3,0,0,0,3.7-1.6,18,18,0,0,0,5.6-5.5,73.6,73.6,0,0,0,3.8-6.4c2.2-4.4,4.3-8.7,6.6-13s4.5-8.5,7.1-12.5,5.4-7.9,8.9-10.8a15.2,15.2,0,0,1,5.7-3.2,10.3,10.3,0,0,1,3.1-.4,10,10,0,0,1,3.1.5,5.6,5.6,0,0,1,3.7,4,16.6,16.6,0,0,1,.2,6.5v1.8l-.2,1.9c-.1,1.2-.3,2.4-.4,3.6s-.7,4.7-1.1,7.1a78.5,78.5,0,0,1-3.6,13.7c-.2.6-.4,1.1-.7,1.6a16.5,16.5,0,0,1-.7,1.6l-.8,1.5-.9,1.5c-1.2,2.1-2.5,4.1-3.8,6.1a63,63,0,0,1-9,10.9c-3.4,3.3-7.2,6.4-10.7,9.8s-6.9,6.9-10.2,10.5h-.1l-8.5,11.7c-2.8,3.9-5.7,7.8-8.6,11.6a78.7,78.7,0,0,1-9.4,10.5,31.7,31.7,0,0,1-5.5,4,34.1,34.1,0,0,1-6.2,2.6h-.3a23.1,23.1,0,0,1-10.2,2.5,27.7,27.7,0,0,1-10.4-2l-1.3-.5-1.2-.6-1.2-.6-1.2-.7-1.2-.7-1.2-.8-1.2-.8-1.1-.8a76,76,0,0,1-8.5-7.4h0a1,1,0,0,0-1.4,0c-.4.4-.6.6-.3,1l2,2.6,1.9,2.2,2,2.2,2.2,2,1.1,1,1.2.9,1.2.9,1.2.8,2.6,1.6,1.3.7,1.4.6c1.1.5,1.1,1.3,1,2.4h0c-1,1.9-2.3,4.3-3.9,7.5a2,2,0,0,0,.9,2.7l.9.2a2,2,0,0,0,1.8-1.1l2-4c2.3-4.4,7.9-5,9.3-5.1a27.7,27.7,0,0,0,12-2.8,34.4,34.4,0,0,0,7-3,36.4,36.4,0,0,0,6.3-4.6,80.1,80.1,0,0,0,9.9-11.2c3-3.9,5.8-7.9,8.6-11.8l8.3-11.7c3.2-3.5,6.5-6.9,9.9-10.2s7.1-6.4,10.7-9.8a67.2,67.2,0,0,0,9.6-11.5c1.4-2.1,2.7-4.1,3.9-6.3l.9-1.6.9-1.7c.3-.6.6-1.2.8-1.8s.5-1.2.7-1.8a82.6,82.6,0,0,0,3.9-14.4c.5-2.4.9-4.9,1.2-7.3s.3-2.4.5-3.7l.2-1.7.3-1.8a20.7,20.7,0,0,0-.3-8.3,10.6,10.6,0,0,0-2.3-4.3,10,10,0,0,0-3.8-2.5A22.7,22.7,0,0,1,378.6,110.3Z"/>
  </g>
</svg>
