<svg xmlns="http://www.w3.org/2000/svg" viewBox="0 0 399.1 192.7">
  <defs>
    <style>
      .a {
        fill: #fff;
        stroke: #fff;
        stroke-miterlimit: 10;
        opacity: 0.3;
      }

      .a, .b {
        fill-rule: evenodd;
      }

      .b {
        fill: #cd96cd;
      }

      .c {
        fill: none;
        stroke: #694489;
        stroke-linecap: round;
        stroke-linejoin: round;
        stroke-width: 3px;
      }

      .d {
        fill: #694489;
      }
    </style>
  </defs>
  <title>Asset 3</title>
  <g>
    <polygon class="a" points="27.1 116.8 53.1 116.8 71.1 122.6 69.2 141.8 71.1 148.9 78.8 155.9 86.4 158.4 96.1 150.4 104.2 142.3 103.4 156.1 107.8 166.4 117.1 168.9 123.3 168.9 132.9 164.9 137.9 173.7 144.6 177.1 153.3 177.1 157.9 177.1 162.8 184.7 169.6 189.6 178.6 189.6 185.1 186.4 192 177.6 200.8 181.9 210.6 181.6 221.9 177.1 224.8 176.1 239.6 175.9 250.8 163.1 266.8 161 277.3 153.2 282.6 140 297.6 135.1 308.2 130.8 321.3 129.1 353.8 117.6 398.4 100.3 344.9 3.3 318.1 14.6 277.1 29.9 237.8 18.2 229.1 15.6 209.3 5.9 184.1 1.6 142.3 8.6 109.1 22.1 86.9 33.7 76.3 34.1 51.1 22.6 30.8 14.1 0.7 118.6 27.1 116.8"/>
    <path class="b" d="M103.4,133.1c-4.3-5.1-44.4-22.6-51-22.6s-39.3,2.3-42,3.8a31.1,31.1,0,0,0-5.7,4.7s37.7-2.5,42.3-2.3,17,1.1,35.5,10,21.6,15.5,21.6,15.5"/>
    <path class="b" d="M305,121.6a27.6,27.6,0,0,1,11.4-2.5c6,.2,37.7-9.2,53-14.8s22.4-8.4,25.4-4.2-80.4,30.5-80.4,30.5Z"/>
    <path class="b" d="M203.4,165.3s13.7,9.4,16.3,9.6-3.6,5-4.9,4.8-13.1-9-13.9-12.3S202.5,164.6,203.4,165.3Z"/>
    <path class="b" d="M167.9,58.8s12.5-9.4,27.7-3.7,41.3,21.2,47,27.2,31.4,25.2,41.2,26.2,18.2,4,18.7,8.1c.2,1.2-2.8-1.5-7.3-1.9-10.7-.8-29.9-2.2-35-7.3-7.2-7.3-31-24.3-38.9-30.2S180.4,56.3,167.9,58.8Z"/>
    <path class="b" d="M102,87.3s3.4,17.9,28.4,11.5c16.3-5.1,21.7-11.6,28.7-20.6s14.3-14.1,33-12.2c12.6,1.2-14-10-22-6.2s-11.7,2.8-17,13.5-24,18.5-30.5,18.8C104.3,93.4,102,87.3,102,87.3Z"/>
    <path class="b" d="M202.7,143.4a6.3,6.3,0,0,0,1.5,4c1.5,1.5,18.8,8.3,22.8,10.3s15.6,6,16.8,9,2.9,2.2,2.9,2.2,3-5.3,0-7.7S202.7,143.4,202.7,143.4Z"/>
    <path class="b" d="M221.2,119.1s0,4.3,2.5,6.2,19.2,10.2,27.3,16.5c6.1,4.7,21.2,6.2,27.6,5.2,2.2-.3,1.5-1.7,1.5-2.4a5.3,5.3,0,0,0-1.4-4.2s-22.7-3-32.9-8.3Z"/>
    <path class="b" d="M82.6,126.8s-11.7-6.2-11.5-4.1-1.6,3.9,0,5.1,14.6,9.3,22.7,11.5,9.5.3,9.6,0S87.7,129.3,82.6,126.8Z"/>
    <path class="b" d="M102.5,148.8l.2-.2,1,.8s13.5-9.6,23.4-2.8,9,15.5,9.7,7.7h0s8.7-9.1,18.5-2.7c5.8,3.6,8.7,15,8.7,15l4.3-2.4s9.7-3.9,15.6,2.6,8.4,14.8,9.1,8.3,1-10.8-12-16.5c-6-2.6-13.4-1.2-16.1,1.2.3-5.3.1-10.5-10.9-15.2-7.1-3-14,1.4-17.4,5.2-.9-5.2-4.5-9.1-13.6-11.9a14.6,14.6,0,0,0-12.8,1.5c-.9.6-6.4,2.6-8.3.3"/>
    <path class="c" d="M135.3,150.4"/>
    <path class="d" d="M398.4,100.3a1.5,1.5,0,0,0-1.9-.9c-15.2,5.3-30.3,10.9-45.4,16.3L328.4,124l-5.7,2-2.8,1-1.4.5-1.3.4a9.4,9.4,0,0,1-2.4.4,11.4,11.4,0,0,1-2.5-.1,6.9,6.9,0,0,1-3.5-2.6,7.6,7.6,0,0,0-.2-1.4l-.2-.7-.2-.5-.4-1.1c-.2-.7-.5-1.4-.8-2.2l-.5-1.1-.3-.6-.4-.6a9.9,9.9,0,0,0-1.8-2.2l-1.2-.9-1.3-.6a17,17,0,0,0-4.9-.9l-8.6-.2c-2.8-.1-5.6-.3-8.2-.6a45.8,45.8,0,0,1-7.8-1.9,59.7,59.7,0,0,1-7.5-3.1c-2.4-1.3-4.8-2.6-7.1-4.1A121.8,121.8,0,0,1,244.1,93l-6.4-5.5c-2.2-1.9-4.4-3.7-6.7-5.5a152.8,152.8,0,0,0-14.4-9.5c-5-2.9-10-5.6-15.1-8.1l-7.7-3.8-4.1-1.8-2.1-.7-2.2-.7a30,30,0,0,0-18.3.7,28.9,28.9,0,0,0-8.1,4.6,27.9,27.9,0,0,0-3.4,3.2c-.5.6-1,1.2-1.5,1.8l-1.3,1.7a60.1,60.1,0,0,1-5.2,6.3,35.8,35.8,0,0,1-6.1,5,65.1,65.1,0,0,1-7.2,3.9,75,75,0,0,1-7.5,3.2,37.3,37.3,0,0,1-7.7,1.8,18.3,18.3,0,0,1-7.4-.5,11.3,11.3,0,0,1-5.7-3.8l-.6-.7-.5-.8a13.5,13.5,0,0,1-.9-1.6,16.8,16.8,0,0,1-.7-1.6l-.2-.8v-.8c-.7-4,3.8-7.8,7.8-11.6l3.1-3c1.1-1,2.1-2.1,3.1-3.2s3.7-4.5,5.4-6.7c3.4-4.4,7-8.2,11.6-10.8l1.7-.9,1.8-.9,3.9-1.7,7.7-3.6c10.3-5,20.3-10.3,30.2-15.9l3.7-2.1,3.6-1.8a35.8,35.8,0,0,1,3.7-1.4l1.9-.6,2-.4a44.9,44.9,0,0,1,16.1-.1c5.4.9,10.9,2.3,16.5,3.5l2.3.5a2.1,2.1,0,0,0,1.1.2l.8.2,4.1.8,8.1,2.1c10.8,3.1,21.4,6.9,31.9,11h0a2,2,0,0,0,1.4,0q17.4-6.1,34.6-13c5.7-2.3,11.4-4.7,17-7.3l4.2-2,4.1-2.1,4.1-2.3c1.4-.8,2.7-1.7,4-2.6A1.5,1.5,0,0,0,343.3.8h-.2c-1.3.8-2.5,1.6-3.8,2.4l-4,2.1-4.1,2-4.2,1.9c-5.6,2.5-11.2,4.8-16.9,7-11.2,4.3-22.5,8.4-33.9,12.2-10.5-3.8-20.9-7.5-31.7-10.6l-8.3-2.1-4.2-.9h-.1l-.4-.3h0l-5.6-3.6c-1.9-1.2-3.9-2.2-6-3.2A71.3,71.3,0,0,0,207.2,3l-3.3-.8-3.3-.7L197.3,1,193.9.5A82.2,82.2,0,0,0,180.4.1a153.1,153.1,0,0,0-26.5,4,222.6,222.6,0,0,0-25.5,7.6c-4.2,1.5-8.3,3.2-12.4,5l-6,2.9-3,1.6-2.9,1.8a83.1,83.1,0,0,1-11.3,6.2,35.8,35.8,0,0,1-12,3.2,13.8,13.8,0,0,1-2.9-.1L76.6,32l-1.5-.5L69.1,29,57,23.8,32.8,13.3a1.5,1.5,0,0,0-1.2,2.7l12,5.5,12,5.4,12.1,5.4L73.8,35l1.6.6,1.9.5a17.6,17.6,0,0,0,3.7.2,39.2,39.2,0,0,0,13.4-3.5,86.9,86.9,0,0,0,11.9-6.4,82.4,82.4,0,0,1,11.4-6c4-1.8,8-3.4,12.1-4.9a218.6,218.6,0,0,1,25.1-7.4,149,149,0,0,1,25.7-3.8,78.5,78.5,0,0,1,12.8.4l3.2.5,3.2.6,3.2.6,3.1.8c4.1,1.1,4.3,1.5,6.3,3.3h.1l-1.2-.2a49,49,0,0,0-17.5,0l-2.2.5-2.1.6a39.9,39.9,0,0,0-4.2,1.5c-1.4.6-2.6,1.3-4,1.9L177.6,17c-9.9,5.5-19.9,10.7-30.1,15.6l-7.7,3.5-3.9,1.7-2,.9-2,1a33.9,33.9,0,0,0-7.2,5.3,59.6,59.6,0,0,0-5.8,6.6c-1.8,2.3-3.4,4.5-5.2,6.6l-2.8,3-3.1,2.9a61.5,61.5,0,0,0-6.1,6.3,14.9,14.9,0,0,0-2.4,4.1,11.4,11.4,0,0,0-.6,2.5v1.3a9.2,9.2,0,0,0,.1,1.3v1.2l.3,1.2a21,21,0,0,0,.9,2.2,17.8,17.8,0,0,0,1.1,2l.6,1,.7.9a15.8,15.8,0,0,0,7.8,5.3,22.6,22.6,0,0,0,9.2.6,41.6,41.6,0,0,0,8.6-2.1,79.3,79.3,0,0,0,8-3.4,69.4,69.4,0,0,0,7.6-4.2,40.2,40.2,0,0,0,6.9-5.6,64.2,64.2,0,0,0,5.5-6.8l1.3-1.7,1.3-1.5a23.6,23.6,0,0,1,2.9-2.7,24.5,24.5,0,0,1,6.8-3.9,25.6,25.6,0,0,1,15.7-.6l1.9.6,1.9.7,3.8,1.7,7.6,3.7c5,2.5,10,5.2,14.9,8a151.3,151.3,0,0,1,14,9.2c2.2,1.7,4.4,3.4,6.5,5.3l6.4,5.6a126,126,0,0,0,13.8,10.2,86.6,86.6,0,0,0,7.5,4.3,63.9,63.9,0,0,0,8.1,3.3,49.9,49.9,0,0,0,8.5,2c2.9.4,5.8.5,8.6.6l8.5.2a13.5,13.5,0,0,1,3.7.6,4.6,4.6,0,0,1,2.4,2.1l.4.8.4.9c.2.6.5,1.2.7,1.9a9.4,9.4,0,0,1,.8,3.5c0,2.2-1.8,4-4,5.4a30,30,0,0,1-7.4,3,68.7,68.7,0,0,1-8.1,1.7c-2.7.4-5.6.7-8.3.9a35.9,35.9,0,0,1-8.1-.4c-5.4-.9-10.6-3.1-15.8-5.2s-10.3-4.6-15.3-7.1l-15.1-7.8a1.5,1.5,0,0,0-1.5,2.6h0c4.9,2.9,9.8,5.7,14.9,8.3l7.6,3.9,7.8,3.6c5.2,2.2,10.6,4.5,16.6,5.6a39.9,39.9,0,0,0,9,.5l1.9-.2c0,.2,0,.5,0,.7a17.9,17.9,0,0,1-.1,2.7,12.2,12.2,0,0,1-.2,1.3,7.3,7.3,0,0,1-.4,1.1,12.6,12.6,0,0,1-1.3,2.2,23.6,23.6,0,0,1-8.4,6.9,30.1,30.1,0,0,1-10.6,3.1,26.3,26.3,0,0,1-5.5-.1,28.2,28.2,0,0,1-5.4-1.3,79.8,79.8,0,0,1-10.4-4.8c-3.7-1.7-7.3-3.1-11-4.5-7.3-2.8-14.7-5.4-22.1-7.9a1.5,1.5,0,0,0-1.1,2.8h.1l21.6,8.9c3.6,1.5,7.2,3,10.4,4.7a82.8,82.8,0,0,0,10.9,5.1c.4.1,1.5,1.1,1,3.1l-.5,1a15.6,15.6,0,0,1-4.2,4.9c-3.4,2.6-8,3.4-12.5,3a40.5,40.5,0,0,1-6.8-1.3,44.6,44.6,0,0,1-6.5-2.2,59.9,59.9,0,0,1-12-7,1.5,1.5,0,0,0-1.9,2.3h0a51.3,51.3,0,0,0,5.9,4.5,58.4,58.4,0,0,0,6.5,3.6l3.5,1.5a27.6,27.6,0,0,1-3.8,2.4,20.6,20.6,0,0,1-3.7,1.4,12.4,12.4,0,0,1-3.7.4,9.8,9.8,0,0,1-1.8-.2l-2-.5a32.8,32.8,0,0,1-3.8-1.4,25.5,25.5,0,0,1-3.6-1.9,6,6,0,0,1-1.5-3.5h0a20.1,20.1,0,0,0-.4-3.3,19.1,19.1,0,0,0-6.7-10.6,18.3,18.3,0,0,0-11.6-4,18,18,0,0,0-7.3,1.6h0a4.3,4.3,0,0,1-2.5-2.6,18.8,18.8,0,0,0-8.3-9.3,18.2,18.2,0,0,0-20.7,2.2l-.7-1.3a27.6,27.6,0,0,0-2.8-3.5c-9.9-10.2-21.4-5.2-26.6-2-1.7-1.5-3.5-2.8-5.3-4.1l-3.1-2.1-3.2-2a148.1,148.1,0,0,0-13.2-7.1c-2.3-1-4.5-2.1-6.9-3l-3.5-1.4L68,118.9c-2.3-.9-4.8-1.5-7.1-2.3l-7.2-2H40.1c-4.3.1-8.7.1-13.1.4-15.4,1.1-25.7,3.5-26.3,3.8s.6,3.8,1.4,3.5h0l1.4-.4,1.5-.4,3.1-.6,6.3-.9c4.2-.5,8.5-.8,12.8-1l6.4-.2H46.5l6.3.2,6.9,1.9c2.3.7,4.7,1.4,7,2.2l.8.3c-.3,3.3.1,12.5.1,12.5l.6,8.2a15.2,15.2,0,0,0,2.3,7.5,15.8,15.8,0,0,0,5.8,5.3,18.2,18.2,0,0,0,7.4,2,14.4,14.4,0,0,0,7.7-1.6c1.7-.9,6.5-4.7,9.5-7.5a39.7,39.7,0,0,0,1.5,10.9,14.2,14.2,0,0,0,2.5,4.8,13.9,13.9,0,0,0,4.2,3.5,20.5,20.5,0,0,0,10,2.3,18.9,18.9,0,0,0,10-2.7l1.9-1.3a14,14,0,0,0,.8,2.4,16.7,16.7,0,0,0,3.5,5.3,17.7,17.7,0,0,0,5.3,3.7,19.2,19.2,0,0,0,6.3,1.6,19,19,0,0,0,5-.3h0c2.8-.7,6.8,2.2,7.2,3.1l.8,1.4.9,1.3a18.5,18.5,0,0,0,10.4,6.9,18.8,18.8,0,0,0,12.6-1.3,19.5,19.5,0,0,0,5.2-3.7,19.8,19.8,0,0,0,3.7-5.2,2.7,2.7,0,0,1,3-1.3h0l2.2,1.3a28.6,28.6,0,0,0,4.3,1.8l1.1.3,1.2.3a14.3,14.3,0,0,0,2.6.3,15.3,15.3,0,0,0,5.1-.6,20,20,0,0,0,4.5-2c1.4-.9,6.2-3.9,8.2-4.2h0l.9.2,1.9.4,1.9.2a23.5,23.5,0,0,0,7.8-.4,18.3,18.3,0,0,0,7.3-3.4,19.2,19.2,0,0,0,5-6.2c1-2.4,2.9-3.2,3.8-4.1a31.3,31.3,0,0,0,5.4.1,32.9,32.9,0,0,0,12.2-3.8,28.5,28.5,0,0,0,5.3-3.7,22.9,22.9,0,0,0,4.3-4.9,16.2,16.2,0,0,0,1.5-3.1,11.3,11.3,0,0,0,.5-1.8c.8-4.3,3.5-5.7,3.5-6.2a72.7,72.7,0,0,0,8.6-1.8,33.8,33.8,0,0,0,8.5-3.5c.9-.6,4.5-1.2,7-2h0c3.1-.5,6.2-.7,8.5-1.3l1.6-.5,1.5-.5,2.9-1,5.7-2,22.6-8.4,22.5-8.7,22.4-8.9A1.5,1.5,0,0,0,398.4,100.3ZM93.7,149.3h-.1a10.9,10.9,0,0,1-4.2,3.8,10.2,10.2,0,0,1-5.6,1.1,15.6,15.6,0,0,1-5.7-1.6,11.7,11.7,0,0,1-4.3-3.8,11.4,11.4,0,0,1-1.7-5.5v-3.3c0-1.1,0-2.3.1-3.4s.3-4.5.5-6.7a36.9,36.9,0,0,1,.8-4.9h.1c2.3.8,4.5,1.9,6.8,2.8,4.4,2,8.8,4.2,13,6.7,2.7,1.5,5.3,3.2,7.8,5l-3.3,4.2Zm33.2,15.6a15.1,15.1,0,0,1-8,2.1,17.4,17.4,0,0,1-8.2-1.8,10.5,10.5,0,0,1-5-6.1,20,20,0,0,1-.6-8.5,28.5,28.5,0,0,1,.8-4.3c.2-.7.4-1.4.7-2.1l.4-1h.1a26.4,26.4,0,0,1,7.2-3.5,17.1,17.1,0,0,1,16.3,4.2,10.1,10.1,0,0,1,3.7,6.9,15.2,15.2,0,0,1-1.9,8l-1.1,1.9-.6.9-.3.4-.3.4A15.3,15.3,0,0,1,126.9,164.9Zm20,10.4a15.2,15.2,0,0,1-8.9-4,15.9,15.9,0,0,1-3.5-4.8c-.2-.5-.7-2.8-.1-3.7h0v-.2l1.2-2.2a19,19,0,0,0,2.1-9.2h0a2.6,2.6,0,0,1,1.4-2.6,14.9,14.9,0,0,1,6.6-2.7,15.3,15.3,0,0,1,9.7,1.9,14.8,14.8,0,0,1,6.8,17.3,15.1,15.1,0,0,1-5.9,7.8A14.9,14.9,0,0,1,147,175.3Zm41.3,4.5a15,15,0,0,1-2.8,3.9,15.5,15.5,0,0,1-8.6,4.1,15.6,15.6,0,0,1-4.9-.2,14.8,14.8,0,0,1-8.3-5,15.7,15.7,0,0,1-3.4-7.2,19.4,19.4,0,0,0,6.1-9.1,18.7,18.7,0,0,0,.8-4.7h0c1.1-2.9,5.1-3.4,8.4-3.2a15.2,15.2,0,0,1,9,3.5,15,15,0,0,1,4.9,8.3A14.8,14.8,0,0,1,188.3,179.8Z"/>
  </g>
</svg>
