<svg xmlns="http://www.w3.org/2000/svg" viewBox="0 0 42.1 81.1">
  <defs>
    <style>
      .a {
        fill: #694489;
      }
    </style>
  </defs>
  <title>Asset 10</title>
  <g>
    <path class="a" d="M36.5,81.1H5.6A5.6,5.6,0,0,1,0,75.4V5.6A5.6,5.6,0,0,1,5.6,0H36.5a5.6,5.6,0,0,1,5.6,5.6V75.4A5.6,5.6,0,0,1,36.5,81.1ZM5.6,1.6a4,4,0,0,0-4,4V75.4a4,4,0,0,0,4,4H36.5a4,4,0,0,0,4-4V5.6a4,4,0,0,0-4-4Z"/>
    <path class="a" d="M36.5,65.8H5.6a.8.8,0,0,1-.8-.8V12.4a.8.8,0,0,1,.8-.8H36.5a.8.8,0,0,1,.8.8V65A.8.8,0,0,1,36.5,65.8ZM6.4,64.2H35.7v-51H6.4Z"/>
    <path class="a" d="M25.7,9.2H15a.8.8,0,1,1,0-1.6H25.7a.8.8,0,1,1,0,1.6Z"/>
    <circle class="a" cx="20.7" cy="72.9" r="3.9"/>
  </g>
</svg>
