<svg xmlns="http://www.w3.org/2000/svg" viewBox="0 0 191.7 222.7">
  <defs>
    <style>
      .a {
        fill: #fff;
        stroke: #fff;
        stroke-miterlimit: 10;
        opacity: 0.3;
      }

      .b {
        fill: #cd96cd;
      }

      .c {
        fill: #694489;
      }
    </style>
  </defs>
  <title>Asset 4</title>
  <g>
    <polygon class="a" points="70.8 192.4 74 218.4 164 215.3 164 183.1 164 167.6 173.5 155.6 184.8 135.1 184.8 119.9 183.5 110.1 184.8 89 188.3 75.4 188.3 65.9 179.5 54.2 169.9 53.5 169.3 44.1 164 33.4 151.1 31.9 146.7 31 144 20.4 134 13.6 112 15.3 102.8 8.1 88.3 5.4 68.5 5.4 41.8 2.4 28 11.7 26.8 28.9 32 47.4 19.2 50.9 11 65.1 3.3 84.6 3.3 96 6.5 105.9 22 125.2 39 151.4 55.8 168.9 66.4 175.1 70.8 192.4"/>
    <path class="b" d="M28,91.6s-9.3-2.7,3.5-2.7c3.7,0,20.6,1.7,31.7-7C75,70.6,67.5,60.3,70.8,58.8S81.2,63,79,71.8s-12.4,21.3-23.4,22C33.5,95.4,28,91.6,28,91.6Z"/>
    <path class="b" d="M145.9,170.5s6.8,19.6,6.7,36.3,8.4,17.4,10.3,14.8.4-22.1.4-22.1l1-30.6Z"/>
    <path class="b" d="M3.3,93.8s2-26.4,7.4-22c.8.6-4.4,18.3,3.6,29,7,6.3,22,35,32.8,44.8,21.3,19.3,30.8,12.8,34.9,39.2s4.6,20,.7,28.3-8.9,0-8.9,0l-5.5-34L62,172.7s-19.3-15.2-26.4-25.2-23-34.9-23-34.9Z"/>
    <path class="b" d="M142,96.9a17.3,17.3,0,0,1,5.7,15.8c-1.5,10.2-.5,7.4-8,10.7s-20.2,1.9-26.5-4.3,7.1-.2,12.8.2,20.6-3.2,15.3-13.5S142,96.9,142,96.9Z"/>
    <path class="b" d="M45.8,50.1s4.1-8.3,2.8-16.7,2.9-20.4,12-22.7,27.5-4.3,43.9-.9c13,2.7-3.8,5.5-9.5,6S65,12.1,57.9,18s1.3,31.9-.9,35.2S45.8,50.1,45.8,50.1Z"/>
    <path class="b" d="M77,95.5s7.6,4.3,8.5-10.8S84,43.1,92,40.1s15.3-3,19.7-3,11.8,1.8,22.3-4c-5.6-.6-8-2.2-14.5-2.5a176.3,176.3,0,0,0-27.9.7S77.4,32.6,77.4,48.5c0,6.9,2.8,13.1,1.6,23.3-.7,5.9-6.2,15.1-13.2,18.2C64.8,94.7,74.6,96.3,77,95.5Z"/>
    <path class="b" d="M144,59.1s-14.9-.3-22.1,0S110,63.7,108,71.3s-8.3,24.1-10.5,30.1-2.5,9.9,6.2,8.6a265.3,265.3,0,0,1,9.2-29.6S115.8,63.5,144,59.1Z"/>
    <path class="c" d="M191.7,69.7c0-.5-.1-1-.2-1.5a14.4,14.4,0,0,0-.4-1.5,27.1,27.1,0,0,0-2.4-5.1,37.7,37.7,0,0,0-3.1-4.5h-.2l-1.8-1.6-1.9-1.4a22.3,22.3,0,0,0-4.3-2.2,19.7,19.7,0,0,0-4.7-1.2h-1.5a16.4,16.4,0,0,0,.6-7.4,15.7,15.7,0,0,0-1.8-5.2,18.6,18.6,0,0,0-1.5-2.3,14.8,14.8,0,0,0-1.9-2.1,13.8,13.8,0,0,0-4.9-2.9,15.7,15.7,0,0,0-5.5-.7h-4.5l-2.1-.2h-.8a21.1,21.1,0,0,0-1.5-6.6,17.2,17.2,0,0,0-5-6.9,17.8,17.8,0,0,0-3.6-2.3,20.5,20.5,0,0,0-4-1.4,23.6,23.6,0,0,0-4.1-.6h-4.1l-11.7.7-.2-.2a25.6,25.6,0,0,0-7-4.9,34.9,34.9,0,0,0-8-2.6A90.8,90.8,0,0,0,83.6,3.5c-5.3-.1-10.5-.1-15.3-1l-3.8-.8-4-.7C57.8.6,55.1.3,52.4.2S47,0,44.3,0H42.1L39.8.6a18.9,18.9,0,0,0-4.3,1.6,17.7,17.7,0,0,0-6.8,6.1,23.3,23.3,0,0,0-3.3,8.1A43.7,43.7,0,0,0,25.8,33c1,5.4,2.7,10.3,2.5,14h-1A21.9,21.9,0,0,0,21,48.5a14.6,14.6,0,0,0-5.5,4A25.6,25.6,0,0,0,12,58c-1.8,3.7-3.3,7.3-4.8,11S4.4,76.4,2.7,79.7l-.7,1.2-.3.6-.5.9a12.9,12.9,0,0,0-1,3.4,25.1,25.1,0,0,0-.1,6.5,36.8,36.8,0,0,0,3.5,12.1,31.5,31.5,0,0,0,3.3,5.4,26.5,26.5,0,0,0,2.1,2.4l1,1.1,1,1a56.9,56.9,0,0,1,6.7,9.2c2,3.3,3.7,6.8,5.7,10.3,1.1,1.9,2.2,3.5,3.3,5.1l3.4,4.9a195.4,195.4,0,0,0,15.1,18.6,83.6,83.6,0,0,0,8.9,8.4,38.7,38.7,0,0,0,5.2,3.6,19.8,19.8,0,0,0,4.7,1.9c1.6,6.4,3.1,12.9,4.5,19.4.8,3.5,1.5,7,2.2,10.5.3,1.8.6,3.5.9,5.2s.3,1.7.3,2.6a15.8,15.8,0,0,1,.1,2.3h0a2,2,0,0,0,4,.3,18.2,18.2,0,0,0-.1-3.1c-.1-.9-.2-1.9-.3-2.8s-.5-3.6-.8-5.4c-.6-3.6-1.3-7.1-1.9-10.7-1.4-7.1-2.8-14.1-4.4-21.2a2.5,2.5,0,0,0-2-1.9h-.2a12.8,12.8,0,0,1-4.6-1.6,33.9,33.9,0,0,1-4.6-3.1,78.9,78.9,0,0,1-8.4-7.8A190.8,190.8,0,0,1,34,141l-3.4-4.8c-1.1-1.6-2.2-3.2-3.1-4.8-1.9-3.3-3.7-6.9-5.8-10.4a61.4,61.4,0,0,0-7.3-9.9l-1.1-1.1-1-1.1a22,22,0,0,1-1.8-2,27.1,27.1,0,0,1-2.9-4.6A32.4,32.4,0,0,1,4.5,91.8a20.6,20.6,0,0,1,0-5.3,8.8,8.8,0,0,1,.6-2.3l.2-.5.4-.7.8-1.4c1.9-3.7,3.2-7.5,4.7-11.1s3-7.3,4.6-10.7,3.7-6.3,6.8-7.5a17.9,17.9,0,0,1,5.2-1.2l5.8-.3c2,0,4-.2,5.7,0a26.9,26.9,0,0,1,5.4,1.1,44,44,0,0,1,10.2,4.6h.1l.9.3h0c2.4.1,4.9.3,7.2.7a31.2,31.2,0,0,1,6.8,1.7,12.4,12.4,0,0,1,5.2,3.6,9.9,9.9,0,0,1,2.1,5.8v.2h0a8.1,8.1,0,0,1-.1,2.8,17.6,17.6,0,0,1-.9,3A25.9,25.9,0,0,1,73,80.5a29.9,29.9,0,0,1-9.9,8.7h-.1c-5.9,3.2-12.8,4.3-20.4,3.3-10.5-1.3-17.3-2.5-21.1-3.3a2,2,0,1,0-.8,3.9c3.6.7,9.6,1.8,18.7,3-2.4,2.2-6.9,4.8-14.1,4.5a2,2,0,0,0-.2,4h1.6c7.7,0,18.1-5.3,20.9-7.8H48c4,0,13-.8,17.2-2a14.9,14.9,0,0,0,9,3l7.3.8.2.9a18.3,18.3,0,0,0,10.2,11.4c2.5,1.1,7.9,1.7,11.5,1.7h0c1.8,0,3,2.2,3.5,2.8,4.4,6.4,12.6,11.4,23,11.4h.1c.5,0,12.8-.1,18-5.4l2.3-1.8a22.6,22.6,0,0,0,5.4,3.6l.9.2a2,2,0,0,0,.9-3.8,15.8,15.8,0,0,1-7-6h-.1l-.2-2c-.1-1.2-.3-2.3-.4-3.3s2.5-8.4,12.4-12.7a2,2,0,0,0-1.6-3.7c-6.8,3-10.6,7.1-12.6,10.4a23.6,23.6,0,0,0-4.6-6.2,2,2,0,1,0-2.8,2.8c4.7,4.8,5,7.4,5.7,13.1.1,1.1.3,2.3.4,3.6a4.3,4.3,0,0,1-1.4,3.1c-3.4,3.4-12.1,4.2-15.2,4.2H130c-11.7,0-22.2-8.1-22.5-17.5a81.6,81.6,0,0,1,5.9-18.5,80.4,80.4,0,0,0,2.8-7.7c2.3-7,3.5-10.8,12.7-13.6h.1a93.9,93.9,0,0,1,12.7-3.9c1.8-.4,3.3-.8,5-1.4a2,2,0,0,0-1.3-3.8c-1.5.5-2.9.9-4.6,1.3a97.3,97.3,0,0,0-13.1,4c-11.1,3.4-13,9-15.3,16.2a77.3,77.3,0,0,1-2.7,7.3c-5,11.4-6.1,19.4-6.2,19.7a1.9,1.9,0,0,0,0,.3,2.6,2.6,0,0,1-1.8,2.8,13.8,13.8,0,0,1-15.3-9.8c-.1-.5-.2-.9-.3-1.4s-.1-.9-.2-1.5a23.9,23.9,0,0,1,0-3.1,62.9,62.9,0,0,1,.8-6.5c.8-4.4,1.8-9,2.2-13.7s.2-9.4.3-13.9c0-2.2.1-4.5.3-6.6a20.8,20.8,0,0,1,1.3-5.9,4.9,4.9,0,0,1,1.2-1.8,15.9,15.9,0,0,1,8-3.6,39.5,39.5,0,0,1,6.4-.5l6.6.3h.5l5.7-.8,5.6-1,5.6-1.4a53.5,53.5,0,0,0,5.6-1.8,2,2,0,0,0-1.3-3.8h-.1l-5.2,1.3-5.4,1-5.5.8-5.2.5a52.9,52.9,0,0,0-14.2,0,22.5,22.5,0,0,0-7.3,2.5,20.5,20.5,0,0,0-3.2,2.3A10.3,10.3,0,0,0,86,43.3a25.7,25.7,0,0,0-1.7,7.5c-.2,2.4-.3,4.8-.3,7.1-.1,4.6.2,9.3-.2,13.5s-1.3,8.8-2,13.4c-.3,2.2-.6,4.4-.8,6.7a11,11,0,0,1-13.8-.2,33.5,33.5,0,0,0,3.9-2.9,33.9,33.9,0,0,0,5.1-5.6A29.8,29.8,0,0,0,80,76.2,21.6,21.6,0,0,0,81,72.4a11.9,11.9,0,0,0,.1-4.3v.3a13.9,13.9,0,0,0-2.9-8,16.4,16.4,0,0,0-6.9-4.8,35.1,35.1,0,0,0-7.7-2l-3.7-.4h0L57.7,40.6h0c-1-4.7-1.3-9.6,0-13.9a12.3,12.3,0,0,1,8.8-8.6l1.6-.3h3.3l2,.2c2.6.2,5.2.3,7.8.3,5.1,0,10.2-.1,15.3-.3q15.2-.6,30.4-1.8h3.5a19.4,19.4,0,0,1,3.4.5,16.4,16.4,0,0,1,3.2,1.1,13.6,13.6,0,0,1,2.8,1.7,13.1,13.1,0,0,1,3.9,5.2,17.1,17.1,0,0,1,1.3,6.6h0a2,2,0,0,0,1.3,1.9h0l1.3.4,1.3.3,2.5.4,2.6.2h2.4a10.2,10.2,0,0,1,7.1,2.6,12.2,12.2,0,0,1,2.4,3.1,12.5,12.5,0,0,1,1.3,3.7,14.4,14.4,0,0,1-.8,8h0a2.2,2.2,0,0,0-.1.9,2.1,2.1,0,0,0,2.3,1.9h1.7l1.9.2a17.4,17.4,0,0,1,3.7,1.1,17.8,17.8,0,0,1,3.4,1.9l1.5,1.2,1.3,1.2a32.9,32.9,0,0,1,2.6,3.9,22.6,22.6,0,0,1,1.9,4.2,11.2,11.2,0,0,1,.4,4.2,13.4,13.4,0,0,1-1,4.2l-.7,1.7-.6,1.8c-.4,1.2-.7,2.4-1,3.5a72.6,72.6,0,0,0-1.4,7.2c-.4,2.4-.6,4.8-.8,7.2s-.1,2.4-.2,3.6v3.5a30.2,30.2,0,0,0,.1,3.8c.1,1.2.2,2.4.4,3.6l1,7a49.5,49.5,0,0,1,.5,6.7c0,.5,0,1.1-.1,1.6s-.1,1-.2,1.6-.4,2.2-.6,3.3c-1.9,8.8-6.6,16.8-12.3,24.1l-2.2,2.7-2.3,2.7a14.3,14.3,0,0,1-4.8,3.9,21.8,21.8,0,0,1-6.1,2,29.5,29.5,0,0,1-6.5.5H148a2,2,0,0,0-.2,4,33.1,33.1,0,0,0,7.6-.4,26,26,0,0,0,7.1-2.3c-.2,8.2-.6,27.5-.8,33.4a82.2,82.2,0,0,0,.2,10.2,2,2,0,0,0,2,1.8h.2a2,2,0,0,0,1.8-2.2,78.3,78.3,0,0,1-.2-9.7c.2-6.7.7-30.9.9-36.2l.9-.9,1.3-1.4,2.3-2.7,2.3-2.8a78.5,78.5,0,0,0,8-12.1,52.6,52.6,0,0,0,5.2-13.7c.3-1.2.5-2.4.7-3.6s.2-1.2.2-1.9.1-1.3.1-1.9a53.7,53.7,0,0,0-.5-7.4c-.6-4.8-1.6-9.3-1.4-13.7v-3.5c.1-1.1.1-2.3.2-3.4s.4-4.6.8-6.8a68,68,0,0,1,1.4-6.7c.3-1.1.6-2.2,1-3.2l.6-1.6.6-1.4h.1a18.1,18.1,0,0,0,1.4-5.7A18.3,18.3,0,0,0,191.7,69.7ZM96.3,13.5c-5,.2-10.1.3-15.1.3-2.5,0-5-.1-7.4-.3l-1.8-.2H67.6l-2.1.4A16.2,16.2,0,0,0,57.9,18a17.4,17.4,0,0,0-4.3,7.4,19.6,19.6,0,0,0-.5,2l-.2,1v1c-.1.7-.2,1.4-.2,2.1v2c0,.3,0,.7,0,1v1l.2,2c.2,1.3.4,2.2.7,3.5.7,7.1-1.3,9.1-1.6,9.3l-.4-.2A45.2,45.2,0,0,0,45.8,48a30.9,30.9,0,0,0-6.2-1.2h-4c-3.4-3.1-4.5-9.5-5.3-14.5a39.2,39.2,0,0,1,0-14.8A18.4,18.4,0,0,1,33,11.1a12.6,12.6,0,0,1,4.9-4.3A13.7,13.7,0,0,1,41,5.7l1.6-.3h1.7c2.5-.1,5.1,0,7.6.2s5.1.4,7.6.7l3.8.6,3.9.7c5.6.8,10.9.7,16.1.7a86.7,86.7,0,0,1,15.3,1c3.2.6,4.6,1.2,6.3,3.8Z"/>
  </g>
</svg>
